# xmcd
# 
# Track frame offsets:
#     182
#     18232
#     46237
#     63637
#     94017
#     113657
#     138895
#     156215
#     180080
#     204207
#     230125
#     255292
# 
# Disc length: 3651
# 
# Revision: 12
# Processed by: cddbd v1.5.2PL0 Copyright (c) Steve Scherf et al.
# Submitted via: BonkEnc v1.0.6
# 
DISCID=8d0e410c
DTITLE=Jimmy Page and Robert Plant - Walking Into Clarksdale
DYEAR=1998
DGENRE=Classic Rock
TTITLE0=Shining In The Light
TTITLE1=When The World Was Young
TTITLE2=Upon A Golden Horse
TTITLE3=Blue Train
TTITLE4=Please Read The Letter
TTITLE5=Most High
TTITLE6=Heart In Your Hand
TTITLE7=Walking Into Clarksdale
TTITLE8=Burning Up
TTITLE9=When I Was A Child
TTITLE10=House Of Love
TTITLE11=Sons Of Freedom
EXTD=
EXTT0=
EXTT1=
EXTT2=
EXTT3=
EXTT4=
EXTT5=
EXTT6=
EXTT7=
EXTT8=
EXTT9=
EXTT10=
EXTT11=
PLAYORDER=
